# MagicaVoxel @ Ephtracy

# group
o 

# material
mtllib Test magica.mtl
usemtl palette

# normals
vn -1 0 0
vn 1 0 0
vn 0 0 1
vn 0 0 -1
vn 0 -1 0
vn 0 1 0

# texcoords
vt 0.298828 0.5
vt 0.306641 0.5
vt 0.861328 0.5

# verts
v -2 0 2
v -2 0 -2
v -2 4 2
v -2 4 -2
v 1.1 1.9 2
v 1.1 1.9 -1.9
v 1.1 3.9 2
v 1.1 3.9 -1.9
v -1.9 1.9 2
v -1.9 1.9 -1.9
v -1.9 4 2
v -1.9 4 -1.9
v 2 0 2
v 2 0 -2
v 2 1.9 2
v 2 1.9 -1.9
v 2 3.9 2
v 2 3.9 -1.9
v 2 4 -1.9
v 2 4 -2
v -2 0 2
v -2 4 2
v -1.9 1.8 2
v -1.9 1.9 2
v -1.9 4 2
v 1.1 1.8 2
v 1.1 1.9 2
v 1.1 3.9 2
v 2 0 2
v 2 1.9 2
v 2 3.9 2
v -1.9 1.9 -1.9
v -1.9 4 -1.9
v 1.1 1.9 -1.9
v 1.1 3.9 -1.9
v 2 3.9 -1.9
v 2 4 -1.9
v -2 0 -2
v -2 4 -2
v 2 0 -2
v 2 4 -2
v -2 0 2
v 2 0 2
v -2 0 -2
v 2 0 -2
v -1.9 1.9 2
v 1.1 1.9 2
v -1.9 1.9 -1.9
v 1.1 1.9 -1.9
v 1.1 3.9 2
v 2 3.9 2
v 1.1 3.9 -1.9
v 2 3.9 -1.9
v -2 4 2
v -1.9 4 2
v -1.9 4 -1.9
v 2 4 -1.9
v -2 4 -2
v 2 4 -2

# faces
f 3/2/1 2/2/1 1/2/1
f 4/2/1 2/2/1 3/2/1
f 7/3/1 6/3/1 5/3/1
f 8/3/1 6/3/1 7/3/1
f 9/2/2 10/2/2 11/2/2
f 11/2/2 10/2/2 12/2/2
f 13/2/2 14/2/2 15/2/2
f 15/2/2 14/2/2 16/2/2
f 15/3/2 16/3/2 17/3/2
f 16/2/2 14/2/2 18/2/2
f 17/3/2 16/3/2 18/3/2
f 18/2/2 14/2/2 19/2/2
f 19/2/2 14/2/2 20/2/2
f 23/2/3 22/2/3 21/2/3
f 24/2/3 22/2/3 23/2/3
f 25/2/3 22/2/3 24/2/3
f 26/2/3 23/2/3 21/2/3
f 26/1/3 24/1/3 23/1/3
f 27/1/3 24/1/3 26/1/3
f 29/2/3 26/2/3 21/2/3
f 29/2/3 27/2/3 26/2/3
f 30/3/3 28/3/3 27/3/3
f 30/2/3 27/2/3 29/2/3
f 31/3/3 28/3/3 30/3/3
f 34/2/3 33/2/3 32/2/3
f 35/2/3 33/2/3 34/2/3
f 36/2/3 33/2/3 35/2/3
f 37/2/3 33/2/3 36/2/3
f 38/2/4 39/2/4 40/2/4
f 40/2/4 39/2/4 41/2/4
f 44/2/5 43/2/5 42/2/5
f 45/2/5 43/2/5 44/2/5
f 46/1/6 47/1/6 48/1/6
f 48/1/6 47/1/6 49/1/6
f 50/3/6 51/3/6 52/3/6
f 52/3/6 51/3/6 53/3/6
f 54/2/6 55/2/6 56/2/6
f 54/2/6 56/2/6 58/2/6
f 56/2/6 57/2/6 58/2/6
f 58/2/6 57/2/6 59/2/6
